<svg width="41" height="47" viewBox="0 0 41 47" fill="none" xmlns="http://www.w3.org/2000/svg">
<path fill-rule="evenodd" clip-rule="evenodd" d="M15.2469 2.65763C12.4384 4.11615 10.1407 5.35035 10.1412 5.40055C10.1424 5.53011 16.8817 8.93265 17.1209 8.92436C17.2297 8.92072 18.019 8.55849 18.8748 8.1195L20.4312 7.32148L22.1309 8.19247L23.8305 9.06362L26.6139 7.81674C30.808 5.93788 31.2436 5.73199 31.1753 5.66281C31.0847 5.57104 29.5804 4.76537 25.499 2.62326C23.5266 1.58796 21.6121 0.572882 21.2446 0.367481C20.8771 0.162079 20.5263 -0.00315272 20.465 4.56619e-05C20.4037 0.00324405 18.0555 1.19917 15.2469 2.65763ZM2.92889 9.01678L0.00527454 10.5223V17.1297C0.00527454 20.7639 0.0436645 23.7371 0.0907547 23.7371C0.137682 23.7371 1.57611 23.1155 3.28718 22.3557L6.39823 20.9744V14.0097L7.91849 14.8354C9.08999 15.4711 10.2622 16.1055 11.4351 16.7387L13.4314 17.8162L14.3197 17.4157C14.8768 17.1642 15.4328 16.9102 15.9876 16.6538C16.4164 16.4547 17.4689 15.9821 18.3265 15.6033C19.184 15.2244 19.9779 14.8434 20.0904 14.7565C20.24 14.6412 18.4166 13.6367 13.3464 11.041C9.52451 9.08438 6.2749 7.48974 6.12504 7.49739C5.97518 7.50503 4.53692 8.18867 2.92889 9.01678ZM31.7022 9.43957C29.711 10.3357 28.0805 11.1047 28.0786 11.1486C28.0769 11.1924 29.1622 11.8357 30.4905 12.5779C31.8187 13.3203 32.9054 13.9675 32.9054 14.0162C32.9054 14.0648 31.7301 14.6326 30.2937 15.2781C28.8572 15.9235 25.2262 17.5582 22.2246 18.9109L12.1674 23.443C9.63756 24.5831 7.35716 25.6108 7.09991 25.7269C1.93249 28.059 0.512174 28.7061 0.317125 28.8172C0.120988 28.929 0.0765623 29.5787 0.0416525 32.8396L0 36.7288L2.61443 38.0569L5.22881 39.3849L8.85404 37.7538C10.848 36.8568 12.4793 36.0758 12.4793 36.0183C12.4793 35.961 12.1108 35.7216 11.6607 35.4862C11.2103 35.2509 10.2807 34.7298 9.59465 34.3281C8.90864 33.9264 8.22458 33.5578 8.07439 33.5089C7.92426 33.4601 7.8036 33.3749 7.80604 33.3193C7.80854 33.2638 9.40493 32.5078 11.3534 31.6392C15.1378 29.9524 18.034 28.6523 24.2516 25.8491C27.0319 24.5959 29.8126 23.3435 32.5936 22.0918C35.0377 20.992 37.8794 19.7075 38.9086 19.2374L40.7797 18.3827L40.8213 14.4492L40.8631 10.5158L38.2114 9.15892C36.7529 8.41272 35.5063 7.804 35.4409 7.80622C35.3756 7.80828 33.6932 8.54321 31.7022 9.43957ZM40.0692 23.6302C39.6785 23.8205 38.9067 24.1768 38.3541 24.4218C37.8015 24.6669 36.7529 25.1386 36.0239 25.4702L34.6986 26.0729L34.6683 29.5261C34.6516 31.4254 34.5815 32.9709 34.5124 32.9609C34.3556 32.9376 31.8715 31.6676 29.3745 30.3337C27.5723 29.3711 27.4591 29.3328 27.0356 29.5419C26.7908 29.6628 25.3275 30.3171 23.7839 30.9961C22.2402 31.675 20.9269 32.2747 20.8651 32.3291C20.8035 32.3833 23.9103 34.062 27.7693 36.0597L34.7855 39.692L37.7826 38.1463C39.4309 37.2963 40.8325 36.5209 40.8971 36.4234C41.0424 36.2041 41.0299 23.2542 40.8845 23.2717C40.8269 23.2785 40.46 23.4399 40.0692 23.6302ZM23.472 38.8302C22.9521 39.053 22.4324 39.2762 21.9128 39.4996C20.3437 40.1764 20.6512 40.1988 18.7844 39.2724C17.5411 38.6554 17.0052 38.465 16.7725 38.5574C16.598 38.6267 15.0963 39.3002 13.4351 40.0541C11.774 40.808 10.3573 41.4248 10.2868 41.4248C9.58987 41.4248 10.7485 42.115 15.2195 44.3634L20.463 47L22.6691 45.9142C23.8826 45.3169 26.3299 44.121 28.108 43.2566C29.8858 42.3919 31.3185 41.6621 31.2917 41.6346C31.2646 41.6071 29.7749 40.8445 27.981 39.9399L24.7194 38.2952L23.472 38.8302Z" fill="white"/>
</svg>
