<svg width="47" height="47" viewBox="0 0 47 47" fill="none" xmlns="http://www.w3.org/2000/svg">
<g clip-path="url(#clip0_1_22)">
<path d="M9.8547 22.3212C9.85474 22.0616 9.90606 21.8047 10.0057 21.565C10.1053 21.3254 10.2513 21.1078 10.4352 20.9248C10.6192 20.7417 10.8375 20.5968 11.0776 20.4983C11.3177 20.3998 11.5749 20.3498 11.8344 20.351L15.1168 20.3617C15.6401 20.3617 16.142 20.5696 16.512 20.9396C16.8821 21.3097 17.09 21.8116 17.09 22.3349V34.746C17.4595 34.6363 17.9341 34.5194 18.4534 34.3971C18.8141 34.3124 19.1356 34.1083 19.3657 33.8178C19.5958 33.5274 19.721 33.1677 19.7209 32.7972V17.4018C19.7209 16.8785 19.9287 16.3765 20.2988 16.0064C20.6688 15.6363 21.1707 15.4283 21.6941 15.4282H24.983C25.5063 15.4283 26.0082 15.6363 26.3783 16.0064C26.7483 16.3765 26.9562 16.8785 26.9562 17.4018V31.6902C26.9562 31.6902 27.7797 31.357 28.5817 31.0185C28.8797 30.8925 29.1339 30.6815 29.3128 30.4119C29.4916 30.1424 29.5871 29.8261 29.5874 29.5026V12.4687C29.5874 11.9455 29.7953 11.4436 30.1652 11.0736C30.5352 10.7035 31.037 10.4956 31.5603 10.4955H34.8491C35.3725 10.4955 35.8744 10.7034 36.2444 11.0735C36.6145 11.4435 36.8224 11.9454 36.8224 12.4687V26.4958C39.6737 24.4293 42.5633 21.944 44.8563 18.9555C45.1891 18.5217 45.4092 18.0123 45.4971 17.4728C45.585 16.9333 45.538 16.3804 45.3603 15.8634C44.2988 12.8095 42.6118 10.0108 40.4066 7.64632C38.2014 5.28191 35.527 3.40384 32.5544 2.13235C29.5817 0.860856 26.3764 0.223925 23.1435 0.262319C19.9106 0.300713 16.7213 1.01359 13.7798 2.35531C10.8382 3.69705 8.20909 5.63808 6.06073 8.05423C3.91237 10.4703 2.29206 13.3084 1.30349 16.3867C0.314924 19.4649 -0.0201346 22.7157 0.319756 25.9309C0.659645 29.1461 1.667 32.255 3.27736 35.0586C3.55789 35.5422 3.9706 35.9357 4.46701 36.1929C4.96341 36.4501 5.5229 36.5603 6.0798 36.5106C6.70188 36.4559 7.47642 36.3784 8.39732 36.2702C8.79819 36.2247 9.16831 36.0333 9.43713 35.7325C9.70598 35.4317 9.85474 35.0424 9.85508 34.639L9.8547 22.3212Z" fill="#FAFFFC"/>
<path d="M9.78296 42.2274C13.2496 44.7494 17.3464 46.2633 21.6201 46.6015C25.8938 46.9393 30.1777 46.0887 33.9979 44.1429C37.818 42.1972 41.0253 39.2328 43.2653 35.5774C45.5048 31.922 46.6898 27.7182 46.6886 23.4311C46.6886 22.8962 46.6638 22.3669 46.6282 21.8408C38.1381 34.5032 22.4619 40.4231 9.78368 42.2255" fill="black"/>
</g>
<defs>
<clipPath id="clip0_1_22">
<rect width="47" height="47" fill="white"/>
</clipPath>
</defs>
</svg>
